<?xml version="1.0" encoding="UTF-8"?>
<svg id="Layer_2" xmlns="http://www.w3.org/2000/svg" xmlns:xlink="http://www.w3.org/1999/xlink" viewBox="0 0 29.78 29.71">
  <defs>
    <style>
      .cls-1, .cls-2 {
        fill: none;
      }

      .cls-3, .cls-4, .cls-5, .cls-6 {
        isolation: isolate;
      }

      .cls-3, .cls-4, .cls-6 {
        opacity: .54;
      }

      .cls-3, .cls-7 {
        fill: #aeaeaf;
      }

      .cls-8 {
        fill: url(#linear-gradient-8);
      }

      .cls-9 {
        fill: url(#linear-gradient-7);
      }

      .cls-10 {
        fill: url(#linear-gradient-5);
      }

      .cls-11 {
        fill: url(#linear-gradient-6);
      }

      .cls-12 {
        fill: url(#linear-gradient-9);
      }

      .cls-13 {
        fill: url(#linear-gradient-4);
      }

      .cls-14 {
        fill: url(#linear-gradient-3);
      }

      .cls-15 {
        fill: url(#linear-gradient-2);
      }

      .cls-16 {
        fill: #231f20;
      }

      .cls-17 {
        fill: url(#linear-gradient);
      }

      .cls-18, .cls-6 {
        fill: #fff;
      }

      .cls-19 {
        fill: url(#linear-gradient-10);
      }

      .cls-20 {
        fill: url(#linear-gradient-11);
      }

      .cls-21 {
        fill: url(#linear-gradient-12);
      }

      .cls-22 {
        fill: url(#linear-gradient-13);
      }

      .cls-23 {
        fill: url(#linear-gradient-14);
      }

      .cls-2 {
        stroke: #231f20;
        stroke-miterlimit: 10;
        stroke-width: .08px;
      }
    </style>
    <linearGradient id="linear-gradient" x1="15.76" y1="24.08" x2="21.68" y2="24.08" gradientTransform="translate(0 35.44) scale(1 -1)" gradientUnits="userSpaceOnUse">
      <stop offset="0" stop-color="#d87a26"/>
      <stop offset=".21" stop-color="#dd8425"/>
      <stop offset=".57" stop-color="#eaa225"/>
      <stop offset="1" stop-color="#ffcd24"/>
    </linearGradient>
    <linearGradient id="linear-gradient-2" x1="14.21" y1="26.84" x2="21.42" y2="26.84" gradientTransform="translate(0 35.44) scale(1 -1)" gradientUnits="userSpaceOnUse">
      <stop offset="0" stop-color="#d56126"/>
      <stop offset=".24" stop-color="#dc7226"/>
      <stop offset=".73" stop-color="#ee9e26"/>
      <stop offset="1" stop-color="#fabb26"/>
    </linearGradient>
    <linearGradient id="linear-gradient-3" x1="17.4" y1="21.96" x2="21.35" y2="21.96" gradientTransform="translate(0 35.44) scale(1 -1)" gradientUnits="userSpaceOnUse">
      <stop offset="0" stop-color="#a32424"/>
      <stop offset="1" stop-color="#e32e2b"/>
    </linearGradient>
    <linearGradient id="linear-gradient-4" x1="17.46" y1="19.97" x2="19.17" y2="17.01" gradientTransform="translate(0 35.44) scale(1 -1)" gradientUnits="userSpaceOnUse">
      <stop offset="0" stop-color="#b72828"/>
      <stop offset=".23" stop-color="#c62a29"/>
      <stop offset=".72" stop-color="#e12e2c"/>
      <stop offset="1" stop-color="#eb302d"/>
    </linearGradient>
    <linearGradient id="linear-gradient-5" x1="12.68" y1="27.97" x2="19.92" y2="27.97" gradientTransform="translate(0 35.44) scale(1 -1)" gradientUnits="userSpaceOnUse">
      <stop offset="0" stop-color="#6b8c24"/>
      <stop offset=".07" stop-color="#719326"/>
      <stop offset=".45" stop-color="#8bb230"/>
      <stop offset=".78" stop-color="#9cc536"/>
      <stop offset="1" stop-color="#a2cc39"/>
    </linearGradient>
    <linearGradient id="linear-gradient-6" x1="12.94" y1="19.38" x2="17.71" y2="19.38" gradientTransform="translate(0 35.44) scale(1 -1)" gradientUnits="userSpaceOnUse">
      <stop offset="0" stop-color="#e77e20"/>
      <stop offset=".27" stop-color="#e77920"/>
      <stop offset=".53" stop-color="#e86d22"/>
      <stop offset=".81" stop-color="#ea5924"/>
      <stop offset="1" stop-color="#ed4627"/>
    </linearGradient>
    <linearGradient id="linear-gradient-7" x1="9.79" y1="19.06" x2="16.98" y2="19.06" gradientTransform="translate(0 35.44) scale(1 -1)" gradientUnits="userSpaceOnUse">
      <stop offset="0" stop-color="#f59223"/>
      <stop offset=".39" stop-color="#f27924"/>
      <stop offset="1" stop-color="#ed4b26"/>
    </linearGradient>
    <linearGradient id="linear-gradient-8" x1="11.85" y1="27.57" x2="16.74" y2="27.57" gradientTransform="translate(0 35.44) scale(1 -1)" gradientUnits="userSpaceOnUse">
      <stop offset="0" stop-color="#618020"/>
      <stop offset=".41" stop-color="#7da12f"/>
      <stop offset=".77" stop-color="#8fb639"/>
      <stop offset="1" stop-color="#96be3d"/>
    </linearGradient>
    <linearGradient id="linear-gradient-9" x1="8.18" y1="20.37" x2="15.02" y2="20.37" gradientTransform="translate(0 35.44) scale(1 -1)" gradientUnits="userSpaceOnUse">
      <stop offset="0" stop-color="#c23c93"/>
      <stop offset=".33" stop-color="#aa2a7f"/>
      <stop offset="1" stop-color="#70004e"/>
    </linearGradient>
    <linearGradient id="linear-gradient-10" x1="7.99" y1="22.93" x2="14.13" y2="22.93" gradientTransform="translate(0 35.44) scale(1 -1)" gradientUnits="userSpaceOnUse">
      <stop offset="0" stop-color="#c33d92"/>
      <stop offset=".28" stop-color="#b22783"/>
      <stop offset=".74" stop-color="#9b0b6f"/>
      <stop offset="1" stop-color="#930168"/>
    </linearGradient>
    <linearGradient id="linear-gradient-11" x1="9.86" y1="26.27" x2="13.38" y2="26.27" gradientTransform="translate(0 35.44) scale(1 -1)" gradientUnits="userSpaceOnUse">
      <stop offset="0" stop-color="#0c71b8"/>
      <stop offset=".09" stop-color="#0a6bb0"/>
      <stop offset=".43" stop-color="#075b98"/>
      <stop offset=".74" stop-color="#055289"/>
      <stop offset="1" stop-color="#054f85"/>
    </linearGradient>
    <linearGradient id="linear-gradient-12" x1="8.3" y1="24.88" x2="12.5" y2="24.88" gradientTransform="translate(0 35.44) scale(1 -1)" gradientUnits="userSpaceOnUse">
      <stop offset="0" stop-color="#0c6baf"/>
      <stop offset=".3" stop-color="#0b68ab"/>
      <stop offset=".52" stop-color="#0962a2"/>
      <stop offset=".73" stop-color="#065791"/>
      <stop offset=".92" stop-color="#02477a"/>
      <stop offset="1" stop-color="#003f6e"/>
    </linearGradient>
    <linearGradient id="linear-gradient-13" x1="0" y1="28.35" x2="13.75" y2="28.35" gradientTransform="translate(0 35.44) scale(1 -1)" gradientUnits="userSpaceOnUse">
      <stop offset="0" stop-color="#404041"/>
      <stop offset="1" stop-color="#58595b"/>
    </linearGradient>
    <linearGradient id="linear-gradient-14" x1="15.98" y1="18.89" x2="29.78" y2="18.89" gradientTransform="translate(0 35.44) scale(1 -1)" gradientUnits="userSpaceOnUse">
      <stop offset="0" stop-color="#58595b"/>
      <stop offset=".92" stop-color="#424243"/>
      <stop offset="1" stop-color="#404041"/>
    </linearGradient>
  </defs>
  <g id="Layer_2-2" data-name="Layer_2">
    <g>
      <path class="cls-2" d="M26.98,11.85c-1.86,3.66-5.96,6.4-10.83,6.91-.08,0-.15.02-.23.02-.33.03-.67.05-1,.06-.37,0-.73,0-1.09-.01-.07,0-.14,0-.22-.01-4.52-.3-8.34-2.78-10.34-6.21-.15-.25-.28-.51-.41-.77,1.51-3,4.46-5.33,8.1-6.33.12-.03.24-.06.36-.09h0c.12-.03.25-.06.37-.09.13-.03.26-.05.39-.08.2-.04.41-.07.62-.1.72-.11,1.47-.16,2.23-.16.34,0,.69.01,1.02.03.41.03.81.07,1.2.13h0c.06,0,.12.02.18.03.18.03.36.06.53.1.08.02.16.03.24.05.23.05.46.11.69.17.08.02.15.04.23.06.31.09.61.18.91.29.1.04.2.07.29.11s.19.07.28.11.18.07.27.11.17.08.26.11c2.65,1.21,4.76,3.17,5.96,5.57h-.01Z"/>
      <path class="cls-2" d="M26.98,11.85c-1.86,3.66-5.96,6.4-10.83,6.91-.08,0-.15.02-.23.02-.33.03-.67.05-1,.06-.37,0-.73,0-1.09-.01-.07,0-.14,0-.22-.01-4.52-.3-8.34-2.78-10.34-6.21-.15-.25-.28-.51-.41-.77,1.51-3,4.46-5.33,8.1-6.33.12-.03.24-.06.36-.09h0c.12-.03.25-.06.37-.09.13-.03.26-.05.39-.08.2-.04.41-.07.62-.1.72-.11,1.47-.16,2.23-.16.34,0,.69.01,1.02.03.41.03.81.07,1.2.13h0c.06,0,.12.02.18.03.18.03.36.06.53.1.08.02.16.03.24.05.23.05.46.11.69.17.08.02.15.04.23.06.31.09.61.18.91.29.1.04.2.07.29.11s.19.07.28.11.18.07.27.11.17.08.26.11c2.65,1.21,4.76,3.17,5.96,5.57h-.01Z"/>
      <path class="cls-2" d="M26.98,11.85c-1.86,3.66-5.96,6.4-10.83,6.91-.08,0-.15.02-.23.02-.33.03-.67.05-1,.06-.37,0-.73,0-1.09-.01-.07,0-.14,0-.22-.01-4.52-.3-8.34-2.78-10.34-6.21-.15-.25-.28-.51-.41-.77,1.51-3,4.46-5.33,8.1-6.33.12-.03.24-.06.36-.09h0c.12-.03.25-.06.37-.09.13-.03.26-.05.39-.08.2-.04.41-.07.62-.1.72-.11,1.47-.16,2.23-.16.34,0,.69.01,1.02.03.41.03.81.07,1.2.13h0c.06,0,.12.02.18.03.18.03.36.06.53.1.08.02.16.03.24.05.23.05.46.11.69.17.08.02.15.04.23.06.31.09.61.18.91.29.1.04.2.07.29.11s.19.07.28.11.18.07.27.11.17.08.26.11c2.65,1.21,4.76,3.17,5.96,5.57h-.01Z"/>
      <path class="cls-2" d="M10.96,5.5c-3.66.99-6.65,3.32-8.16,6.33.15.26.3.51.47.76-.15-.25-.28-.51-.41-.77,1.51-3,4.46-5.33,8.1-6.33h0Z"/>
      <path class="cls-2" d="M26.92,11.83c-1.86,3.66-5.9,6.42-10.76,6.93-.08,0-.15.02-.23.02-.33.03-.67.05-1,.06-.37,0-.73,0-1.09-.01-.07,0-.14,0-.22-.01-4.48-.31-8.13-2.83-10.34-6.21-.16-.25-.32-.51-.47-.76,1.51-3,4.5-5.34,8.16-6.33.12-.03.24-.06.36-.09h0c.12-.03.25-.06.37-.09.13-.03.26-.05.39-.08.2-.04.41-.07.62-.1.72-.11,1.47-.16,2.23-.16.34,0,.69.01,1.02.03.41.03.81.07,1.2.13h0c.06,0,.12.02.18.03.18.03.36.06.53.1.08.02.16.03.24.05.23.05.46.11.69.17.08.02.15.04.23.06.31.09.61.18.91.29.1.04.2.07.29.11s.19.07.28.11.18.07.27.11.17.08.26.11c2.62,1.2,4.7,3.16,5.89,5.54h-.01Z"/>
      <path class="cls-16" d="M27.91,8.79c-.23-.3-.39-.51-.64-.79l1.64-1.54-1.68-1.58-1.36,1.61c-1.08-1-2.17-1.65-3.54-2.34l.02-.02.99-1.92-2.35-.82-.54,1.92h0c-1.43-.52-2.92-.81-4.51-.93h0l.18-2.38h-2.7l.21,2.34v.03c-1.66.11-3.25.47-4.73,1.04l-.57-2.05-2.35.87,1.05,2.05c-1.31.71-2.49,1.46-3.53,2.46l.07-.04-1.45-1.57-1.67,1.71,1.73,1.39c-.17.2-.16.28-.32.49C1.11,9.72.48,10.79,0,11.92c.48,1.08,1.1,2.11,1.85,3.06,2.95,3.75,7.65,6.54,13.04,6.39,5.42-.15,10.06-2.64,13.03-6.48.72-.93,1.37-1.96,1.84-3.02-.44-1.09-1.15-2.09-1.87-3.04l.02-.04ZM16.16,18.76c-.08,0-.15.02-.23.02-.33.03-.67.05-1,.06-.37,0-.73,0-1.09-.01-.07,0-.14,0-.22-.01-4.52-.3-8.34-2.78-10.34-6.21-.16-.25-.32-.51-.47-.76,1.51-3,4.5-5.34,8.16-6.33.12-.03.24-.06.36-.09h0c.12-.03.25-.06.37-.09.13-.03.26-.05.39-.08.2-.04.41-.07.62-.1.72-.11,1.47-.16,2.23-.16.34,0,.69.01,1.02.03.41.03.81.07,1.2.13h0c.06,0,.12.02.18.03.18.03.36.06.53.1.08.02.16.03.24.05.23.05.46.11.69.17.08.02.15.04.23.06.31.09.61.18.91.29.1.04.2.07.29.11s.19.07.28.11.18.07.27.11.17.08.26.11c2.65,1.21,4.76,3.17,5.96,5.57-1.86,3.66-5.96,6.4-10.83,6.91v-.02Z"/>
      <path class="cls-4" d="M17.65,11.97c0,1.54-1.25,2.8-2.8,2.8s-2.8-1.25-2.8-2.8,1.25-2.8,2.8-2.8,2.8,1.25,2.8,2.8Z"/>
      <circle class="cls-3" cx="13.98" cy="10.6" r=".85"/>
      <circle class="cls-6" cx="13.98" cy="10.55" r=".73"/>
      <path d="M17.69,11.93c0,1.57-1.28,2.85-2.85,2.85s-2.85-1.28-2.85-2.85,1.28-2.85,2.85-2.85,2.85,1.28,2.85,2.85Z"/>
      <circle class="cls-7" cx="14.03" cy="10.53" r=".86"/>
      <circle class="cls-18" cx="14.01" cy="10.5" r=".7"/>
      <g>
        <path class="cls-17" d="M21.42,10.02c.17.6.26,1.24.26,1.89,0,.37-.03.74-.09,1.1-.06.35-.14.68-.24,1.01-.07-.19-.16-.37-.25-.56-.29-.58-.65-1.11-1.08-1.58-.33-.36-.69-.68-1.09-.97-.44-.31-.91-.57-1.42-.78-.04-.02-.08-.03-.12-.05-.18-.25-.39-.48-.64-.67-.29-.23-.63-.41-1-.52.22-.05.45-.1.68-.13.31-.04.63-.07.95-.07.7,0,1.39.11,2.03.31.73.23,1.4.57,2,1.01h0Z"/>
        <path class="cls-15" d="M21.27,9.57c.05.15.1.3.15.45-.6-.44-1.28-.78-2-1.01-.64-.2-1.32-.31-2.03-.31-.32,0-.64.02-.95.07-.23.03-.46.07-.68.13-.29-.09-.61-.14-.93-.14h-.04c-.2,0-.4.02-.59.06.1-.09.2-.17.31-.25.4-.3.83-.56,1.28-.77.42-.19.85-.34,1.31-.45.49-.11,1-.17,1.53-.17.25,0,.49.01.74.04.18.02.36.05.54.08.59.65,1.05,1.42,1.35,2.26h.01Z"/>
        <path class="cls-14" d="M21.11,13.46c.09.18.17.37.25.56-.26.82-.67,1.57-1.2,2.22-.18.22-.37.43-.57.62.05-.33.08-.68.08-1.02,0-.47-.05-.93-.14-1.37-.19-.94-.57-1.8-1.09-2.56-.16-.23-.33-.45-.52-.66-.08-.36-.21-.69-.4-.99-.04-.06-.07-.11-.11-.17.04.01.08.03.12.05.5.2.98.46,1.42.78.4.28.76.61,1.09.97.43.47.8,1,1.08,1.58h-.01Z"/>
        <path class="cls-13" d="M19.65,15.84c0,.35-.03.69-.08,1.02-.65.63-1.43,1.13-2.29,1.46-.34.13-.68.23-1.04.31.14-.17.26-.35.38-.54.35-.55.63-1.16.82-1.81.12-.41.2-.84.24-1.28.02-.2.03-.41.03-.61,0-.22-.01-.45-.03-.67-.01-.13-.03-.26-.05-.38.11-.21.19-.44.25-.68.06-.24.09-.49.09-.75,0-.23-.02-.45-.07-.66.19.21.36.43.52.66.53.76.9,1.62,1.09,2.56.09.44.14.9.14,1.37Z"/>
        <path class="cls-10" d="M19.92,7.31c-.18-.03-.36-.06-.54-.08-.24-.03-.49-.04-.74-.04-.53,0-1.04.06-1.53.17-.46.1-.89.26-1.31.45-.46.21-.89.47-1.28.77-.11.08-.21.16-.31.25-.21.04-.41.11-.6.19-.34.15-.66.36-.92.61.07-.22.15-.44.25-.66.39-.89.96-1.69,1.67-2.34.62-.56,1.34-1.02,2.14-1.32.94.27,1.8.74,2.53,1.36.23.2.45.41.65.63h0Z"/>
        <path class="cls-11" d="M17.71,14.39c0,.21,0,.41-.03.61-.04.44-.12.87-.24,1.28-.18.65-.46,1.26-.82,1.81-.12.19-.25.37-.38.54-.46.1-.93.15-1.41.15-.44,0-.86-.04-1.28-.12-.21-.04-.42-.09-.62-.15.79-.31,1.5-.76,2.12-1.32.65-.6,1.19-1.32,1.58-2.13.13-.28.25-.56.34-.86.1-.1.2-.2.29-.31.14-.17.26-.36.37-.56.02.13.03.25.05.38.02.22.03.44.03.67h0Z"/>
        <path class="cls-9" d="M16.98,14.22c-.09.3-.21.58-.34.86-.39.81-.92,1.53-1.58,2.13-.61.56-1.33,1.01-2.12,1.32-.78-.22-1.49-.58-2.13-1.05-.37-.27-.71-.58-1.02-.91.27.04.55.06.83.06h.06c.53,0,1.04-.06,1.53-.17.54-.12,1.05-.31,1.53-.55.38-.19.75-.42,1.08-.68.06-.05.13-.1.19-.15.18-.01.36-.04.54-.08.54-.13,1.03-.4,1.42-.76v-.02Z"/>
        <path class="cls-8" d="M15.73,5.1c.34.05.68.12,1.01.21-.8.31-1.52.76-2.14,1.32-.71.65-1.28,1.44-1.67,2.34-.09.21-.18.43-.25.66-.19.19-.36.39-.51.62-.09.14-.16.29-.23.44-.02-.1-.03-.21-.04-.31-.03-.28-.05-.56-.05-.85,0-.17,0-.33.02-.49.03-.48.12-.95.25-1.4.2-.69.5-1.33.88-1.91.12-.18.25-.36.39-.52.47-.1.96-.16,1.46-.16.3,0,.6.02.9.06h-.02Z"/>
        <path class="cls-12" d="M14.84,15.06h.19c-.06.05-.12.1-.19.15-.34.26-.7.49-1.08.68-.48.24-1,.43-1.53.55-.49.11-1,.17-1.53.17h-.06c-.28,0-.56-.02-.83-.06-.57-.62-1.02-1.34-1.33-2.14-.11-.29-.21-.59-.28-.89.69.59,1.51,1.05,2.4,1.33.64.2,1.32.31,2.03.31.21,0,.43,0,.63-.03.3-.03.6-.07.89-.14.16.04.32.06.49.07h.21,0Z"/>
        <path class="cls-19" d="M12.88,14.37c.36.29.79.5,1.25.61-.29.07-.58.11-.89.14-.21.02-.42.03-.63.03-.71,0-1.39-.11-2.03-.31-.89-.28-1.71-.73-2.4-1.33-.12-.52-.19-1.05-.19-1.61,0-.35.03-.69.08-1.02.05-.35.13-.69.23-1.02.07.2.16.4.25.6.29.62.68,1.19,1.14,1.69.38.41.8.78,1.26,1.09.27.18.56.34.85.48.23.11.46.2.7.29.12.13.24.25.38.36Z"/>
        <path class="cls-20" d="M13.38,5.2c-.14.17-.27.34-.39.52-.39.58-.69,1.22-.88,1.91-.13.45-.21.92-.25,1.4-.01.16-.02.33-.02.49,0,.29.02.57.05.85.01.1.03.21.04.31-.14.33-.22.69-.24,1.07v.16c0,.37.06.73.18,1.06.02.06.04.12.07.17-.23-.22-.44-.46-.64-.71-.64-.82-1.1-1.79-1.31-2.85-.09-.44-.14-.9-.14-1.37,0-.37.03-.74.09-1.1.67-.69,1.5-1.24,2.41-1.6.33-.13.67-.23,1.02-.31h0Z"/>
        <path class="cls-21" d="M11.95,13.14c.14.32.32.62.55.87-.24-.08-.47-.18-.7-.29-.3-.14-.58-.3-.85-.48-.46-.31-.89-.67-1.26-1.09-.46-.5-.84-1.07-1.14-1.69-.09-.19-.18-.39-.25-.6.25-.81.65-1.55,1.15-2.2.15-.2.32-.38.49-.56-.06.36-.09.73-.09,1.1,0,.47.05.93.14,1.37.21,1.06.67,2.03,1.31,2.85.2.25.41.49.64.71h.01Z"/>
      </g>
      <path class="cls-22" d="M0,11.83S3.26,3.11,13.75,2.35c0,0-7.03,1.93-10.91,9.42l-2.84.05h0Z"/>
      <g class="cls-5">
        <g class="cls-5">
          <path class="cls-16" d="M2.21,23.87h1.05v4.86h2.36v.88h-3.41v-5.74Z"/>
        </g>
      </g>
      <g class="cls-5">
        <g class="cls-5">
          <path class="cls-16" d="M12.61,27.06h-2.17v1.69h2.42v.86h-3.47v-5.75h3.34v.86h-2.29v1.48h2.17v.85Z"/>
        </g>
      </g>
      <g class="cls-5">
        <g class="cls-5">
          <path class="cls-16" d="M16.76,29.62v-5.77h1.2l1.49,2.47c.38.64.72,1.31.98,1.93h.02c-.07-.77-.09-1.51-.09-2.4v-2.01h.98v5.77h-1.09l-1.51-2.53c-.37-.63-.75-1.34-1.04-1.99h-.03c.04.75.05,1.51.05,2.46v2.06h-.97Z"/>
        </g>
      </g>
      <g class="cls-5">
        <g class="cls-5">
          <path class="cls-16" d="M25.11,28.48c.34.2.85.37,1.39.37.67,0,1.05-.32,1.05-.78,0-.44-.29-.69-1.02-.96-.95-.34-1.55-.84-1.55-1.67,0-.94.79-1.65,2.03-1.65.62,0,1.08.14,1.38.29l-.26.84c-.2-.11-.61-.27-1.14-.27-.67,0-.96.36-.96.69,0,.44.33.65,1.1.95,1,.38,1.48.88,1.48,1.71,0,.92-.7,1.72-2.18,1.72-.61,0-1.24-.17-1.55-.36l.23-.87Z"/>
        </g>
      </g>
      <path class="cls-23" d="M26.86,11.83h2.92s-2.54,8.31-13.8,9.44c0,0,8.23-2.77,10.88-9.44Z"/>
      <line class="cls-1" x1="26.86" y1="12.02" x2="26.76" y2="11.83"/>
    </g>
  </g>
</svg>