<?xml version="1.0" encoding="UTF-8"?>
<svg id="Layer_2" xmlns="http://www.w3.org/2000/svg" xmlns:xlink="http://www.w3.org/1999/xlink" viewBox="0 0 566.28 503.42">
  <defs>
    <style>
      .cls-1 {
        fill: none;
        stroke: #231f20;
        stroke-miterlimit: 10;
      }

      .cls-2, .cls-3 {
        fill: #010101;
      }

      .cls-4 {
        fill: url(#linear-gradient-8);
      }

      .cls-5 {
        fill: url(#linear-gradient-7);
      }

      .cls-6 {
        fill: url(#linear-gradient-5);
      }

      .cls-7 {
        fill: url(#linear-gradient-6);
      }

      .cls-8 {
        fill: url(#linear-gradient-9);
      }

      .cls-9 {
        fill: url(#linear-gradient-4);
      }

      .cls-10 {
        fill: url(#linear-gradient-3);
      }

      .cls-11 {
        fill: url(#linear-gradient-2);
      }

      .cls-12 {
        fill: #231f20;
      }

      .cls-13 {
        fill: url(#linear-gradient);
      }

      .cls-14, .cls-15 {
        fill: #fff;
      }

      .cls-14, .cls-3, .cls-16 {
        opacity: .54;
      }

      .cls-17, .cls-16 {
        fill: #b0b0b0;
      }

      .cls-18 {
        fill: url(#linear-gradient-10);
      }

      .cls-19 {
        fill: url(#linear-gradient-11);
      }

      .cls-20 {
        fill: url(#linear-gradient-12);
      }

      .cls-21 {
        fill: url(#linear-gradient-13);
      }

      .cls-22 {
        fill: url(#linear-gradient-14);
      }

      .cls-23 {
        fill: url(#linear-gradient-15);
      }
    </style>
    <linearGradient id="linear-gradient" x1="301.99" y1="175.37" x2="374.6" y2="175.37" gradientUnits="userSpaceOnUse">
      <stop offset="0" stop-color="#d97a26"/>
      <stop offset=".21" stop-color="#de8425"/>
      <stop offset=".57" stop-color="#eba225"/>
      <stop offset="1" stop-color="#ffcd25"/>
    </linearGradient>
    <linearGradient id="linear-gradient-2" x1="282.83" y1="141.51" x2="371.38" y2="141.51" gradientUnits="userSpaceOnUse">
      <stop offset="0" stop-color="#d66126"/>
      <stop offset=".24" stop-color="#dc7226"/>
      <stop offset=".72" stop-color="#ee9e26"/>
      <stop offset="1" stop-color="#fabc27"/>
    </linearGradient>
    <linearGradient id="linear-gradient-3" x1="322.04" y1="201.34" x2="370.57" y2="201.34" gradientUnits="userSpaceOnUse">
      <stop offset="0" stop-color="#a42524"/>
      <stop offset="1" stop-color="#e32f2b"/>
    </linearGradient>
    <linearGradient id="linear-gradient-4" x1="322.85" y1="225.78" x2="343.84" y2="262.14" gradientUnits="userSpaceOnUse">
      <stop offset="0" stop-color="#b82828"/>
      <stop offset=".22" stop-color="#c62a29"/>
      <stop offset=".71" stop-color="#e12f2c"/>
      <stop offset="1" stop-color="#eb312d"/>
    </linearGradient>
    <linearGradient id="linear-gradient-5" x1="264.07" y1="127.55" x2="352.96" y2="127.55" gradientUnits="userSpaceOnUse">
      <stop offset="0" stop-color="#6b8c24"/>
      <stop offset=".08" stop-color="#719426"/>
      <stop offset=".46" stop-color="#8cb330"/>
      <stop offset=".78" stop-color="#9dc636"/>
      <stop offset="1" stop-color="#a3cd39"/>
    </linearGradient>
    <linearGradient id="linear-gradient-6" x1="267.29" y1="233.08" x2="325.88" y2="233.08" gradientUnits="userSpaceOnUse">
      <stop offset="0" stop-color="#e77e20"/>
      <stop offset=".27" stop-color="#e77920"/>
      <stop offset=".53" stop-color="#e86d22"/>
      <stop offset=".81" stop-color="#ea5924"/>
      <stop offset="1" stop-color="#ed4627"/>
    </linearGradient>
    <linearGradient id="linear-gradient-7" x1="228.63" y1="236.79" x2="316.85" y2="236.79" gradientUnits="userSpaceOnUse">
      <stop offset="0" stop-color="#f59323"/>
      <stop offset=".39" stop-color="#f27a24"/>
      <stop offset="1" stop-color="#ee4c26"/>
    </linearGradient>
    <linearGradient id="linear-gradient-8" x1="253.87" y1="132.42" x2="313.93" y2="132.42" gradientUnits="userSpaceOnUse">
      <stop offset="0" stop-color="#618120"/>
      <stop offset=".41" stop-color="#7da22f"/>
      <stop offset=".77" stop-color="#8fb739"/>
      <stop offset="1" stop-color="#96bf3d"/>
    </linearGradient>
    <linearGradient id="linear-gradient-9" x1="208.86" y1="220.83" x2="292.87" y2="220.83" gradientUnits="userSpaceOnUse">
      <stop offset="0" stop-color="#c33d94"/>
      <stop offset=".33" stop-color="#ab2b7f"/>
      <stop offset="1" stop-color="#70004d"/>
    </linearGradient>
    <linearGradient id="linear-gradient-10" x1="206.54" y1="189.44" x2="281.94" y2="189.44" gradientUnits="userSpaceOnUse">
      <stop offset="0" stop-color="#c33e93"/>
      <stop offset=".29" stop-color="#b12783"/>
      <stop offset=".74" stop-color="#9b0b6f"/>
      <stop offset="1" stop-color="#930168"/>
    </linearGradient>
    <linearGradient id="linear-gradient-11" x1="229.49" y1="148.44" x2="272.67" y2="148.44" gradientUnits="userSpaceOnUse">
      <stop offset="0" stop-color="#0e71b9"/>
      <stop offset=".1" stop-color="#0c6bb0"/>
      <stop offset=".43" stop-color="#085b98"/>
      <stop offset=".74" stop-color="#065289"/>
      <stop offset="1" stop-color="#064f85"/>
    </linearGradient>
    <linearGradient id="linear-gradient-12" x1="210.33" y1="165.5" x2="261.9" y2="165.5" gradientUnits="userSpaceOnUse">
      <stop offset="0" stop-color="#0e6bb0"/>
      <stop offset=".29" stop-color="#0d68ac"/>
      <stop offset=".52" stop-color="#0b62a3"/>
      <stop offset=".72" stop-color="#075792"/>
      <stop offset=".91" stop-color="#02487b"/>
      <stop offset="1" stop-color="#003f6e"/>
    </linearGradient>
    <linearGradient id="linear-gradient-13" x1="108.42" y1="122.94" x2="277.22" y2="122.94" gradientUnits="userSpaceOnUse">
      <stop offset="0" stop-color="#414042"/>
      <stop offset="1" stop-color="#58595b"/>
    </linearGradient>
    <linearGradient id="linear-gradient-14" x1="304.72" y1="239.09" x2="474.1" y2="239.09" gradientUnits="userSpaceOnUse">
      <stop offset="0" stop-color="#58595b"/>
      <stop offset=".95" stop-color="#424143"/>
      <stop offset="1" stop-color="#414042"/>
    </linearGradient>
    <linearGradient id="linear-gradient-15" x1="436.94" y1="182.25" x2="438.27" y2="182.25" xlink:href="#linear-gradient-14"/>
  </defs>
  <g id="Layer_1-2" data-name="Layer_1">
    <g>
      <path class="cls-1" d="M439.73,181.37c-22.89,44.99-73.15,78.57-132.95,84.81-.94.1-1.9.19-2.85.28-4.06.36-8.18.6-12.33.71-4.51.12-8.96.05-13.35-.18-.89-.05-1.77-.1-2.65-.16-55.5-3.72-102.4-34.16-126.98-76.31-1.79-3.08-3.47-6.22-5.02-9.41,18.52-36.87,54.78-65.45,99.42-77.68,1.45-.4,2.91-.77,4.37-1.13,0-.01.01-.01.02,0,1.5-.38,3.02-.73,4.54-1.06,1.58-.34,3.16-.67,4.76-.97,2.51-.48,5.03-.91,7.57-1.28,8.89-1.32,18.02-2,27.32-2,4.23,0,8.42.14,12.56.42,5,.33,9.92.86,14.77,1.57.01,0,.02.01.04.01.74.11,1.47.22,2.2.34,2.19.35,4.37.74,6.53,1.17.99.19,1.98.4,2.97.62,2.86.61,5.68,1.29,8.47,2.04.93.25,1.86.51,2.78.77,3.78,1.07,7.5,2.27,11.15,3.58,1.21.43,2.42.88,3.61,1.34,1.16.44,2.31.9,3.46,1.37,1.11.45,2.21.92,3.31,1.39,1.06.46,2.12.93,3.16,1.41,32.49,14.81,58.43,38.97,73.12,68.35Z"/>
      <path class="cls-1" d="M439.73,181.37c-22.89,44.99-73.15,78.57-132.95,84.81-.94.1-1.9.19-2.85.28-4.06.36-8.18.6-12.33.71-4.51.12-8.96.05-13.35-.18-.89-.05-1.77-.1-2.65-.16-55.5-3.72-102.4-34.16-126.98-76.31-1.79-3.08-3.47-6.22-5.02-9.41,18.52-36.87,54.78-65.45,99.42-77.68,1.45-.4,2.91-.77,4.37-1.13,0-.01.01-.01.02,0,1.5-.38,3.02-.73,4.54-1.06,1.58-.34,3.16-.67,4.76-.97,2.51-.48,5.03-.91,7.57-1.28,8.89-1.32,18.02-2,27.32-2,4.23,0,8.42.14,12.56.42,5,.33,9.92.86,14.77,1.57.01,0,.02.01.04.01.74.11,1.47.22,2.2.34,2.19.35,4.37.74,6.53,1.17.99.19,1.98.4,2.97.62,2.86.61,5.68,1.29,8.47,2.04.93.25,1.86.51,2.78.77,3.78,1.07,7.5,2.27,11.15,3.58,1.21.43,2.42.88,3.61,1.34,1.16.44,2.31.9,3.46,1.37,1.11.45,2.21.92,3.31,1.39,1.06.46,2.12.93,3.16,1.41,32.49,14.81,58.43,38.97,73.12,68.35Z"/>
      <path class="cls-1" d="M439.73,181.37c-22.89,44.99-73.15,78.57-132.95,84.81-.94.1-1.9.19-2.85.28-4.06.36-8.18.6-12.33.71-4.51.12-8.96.05-13.35-.18-.89-.05-1.77-.1-2.65-.16-55.5-3.72-102.4-34.16-126.98-76.31-1.79-3.08-3.47-6.22-5.02-9.41,18.52-36.87,54.78-65.45,99.42-77.68,1.45-.4,2.91-.77,4.37-1.13,0-.01.01-.01.02,0,1.5-.38,3.02-.73,4.54-1.06,1.58-.34,3.16-.67,4.76-.97,2.51-.48,5.03-.91,7.57-1.28,8.89-1.32,18.02-2,27.32-2,4.23,0,8.42.14,12.56.42,5,.33,9.92.86,14.77,1.57.01,0,.02.01.04.01.74.11,1.47.22,2.2.34,2.19.35,4.37.74,6.53,1.17.99.19,1.98.4,2.97.62,2.86.61,5.68,1.29,8.47,2.04.93.25,1.86.51,2.78.77,3.78,1.07,7.5,2.27,11.15,3.58,1.21.43,2.42.88,3.61,1.34,1.16.44,2.31.9,3.46,1.37,1.11.45,2.21.92,3.31,1.39,1.06.46,2.12.93,3.16,1.41,32.49,14.81,58.43,38.97,73.12,68.35Z"/>
      <path class="cls-1" d="M243.02,103.43c-44.9,12.19-81.61,40.82-100.14,77.7,1.82,3.18,3.73,6.32,5.74,9.39-1.79-3.08-3.47-6.22-5.02-9.41,18.52-36.87,54.78-65.45,99.42-77.68Z"/>
      <path class="cls-1" d="M438.94,181.1c-22.89,44.99-72.47,78.79-132.16,85.08-.94.1-1.9.19-2.85.28-4.06.36-8.18.6-12.33.71-4.51.12-8.96.05-13.35-.18-.89-.05-1.77-.1-2.65-.16-55.05-3.84-99.78-34.71-126.98-76.31-2.01-3.07-3.92-6.21-5.74-9.39,18.53-36.88,55.24-65.51,100.14-77.7,1.45-.4,2.91-.77,4.37-1.13,0-.01.01-.01.02,0,1.5-.38,3.02-.73,4.54-1.06,1.58-.34,3.16-.67,4.76-.97,2.51-.48,5.03-.91,7.57-1.28,8.89-1.32,18.02-2,27.32-2,4.23,0,8.42.14,12.56.42,5,.33,9.92.86,14.77,1.57.01,0,.02.01.04.01.74.11,1.47.22,2.2.34,2.19.35,4.37.74,6.53,1.17.99.19,1.98.4,2.97.62,2.86.61,5.68,1.29,8.47,2.04.93.25,1.86.51,2.78.77,3.78,1.07,7.5,2.27,11.15,3.58,1.21.43,2.42.88,3.61,1.34,1.16.44,2.31.9,3.46,1.37,1.11.45,2.21.92,3.31,1.39,1.06.46,2.12.93,3.16,1.41,32.13,14.79,57.69,38.79,72.33,68.08Z"/>
      <path class="cls-12" d="M451.15,143.72c-2.79-3.73-4.73-6.21-7.83-9.75l20.08-18.87-20.58-19.4-16.66,19.74c-13.32-12.3-26.68-20.23-43.42-28.72l.22-.28,12.13-23.63-28.88-10.08-6.57,23.59h0c-17.52-6.39-35.8-9.96-55.34-11.39h0s2.25-29.28,2.25-29.28l-33.12.17,2.63,28.54v.42c-20.44,1.33-39.94,5.77-58.04,12.75l-6.96-25.21-28.88,10.67,12.91,25.11c-16.04,8.67-30.55,17.87-43.33,30.2l.83-.51-17.78-19.28-20.53,20.95,21.2,17.03c-2.08,2.48-1.93,3.4-3.88,5.98-9.25,12.22-16.95,25.44-22.84,39.29,5.86,13.31,13.55,25.94,22.74,37.63,36.21,45.99,93.88,80.24,160.13,78.4,66.55-1.85,123.57-32.36,159.94-79.6,8.83-11.47,16.78-24.11,22.54-37.11-5.37-13.4-14.12-25.62-22.93-37.38ZM306.78,266.18c-.94.1-1.9.19-2.85.28-4.06.36-8.18.6-12.33.71-4.51.12-8.96.05-13.35-.18-.89-.05-1.77-.1-2.65-.16-55.5-3.72-102.4-34.16-126.98-76.31-2.01-3.07-3.92-6.21-5.74-9.39,18.53-36.88,55.24-65.51,100.14-77.7,1.45-.4,2.91-.77,4.37-1.13,0-.01.01-.01.02,0,1.5-.38,3.02-.73,4.54-1.06,1.58-.34,3.16-.67,4.76-.97,2.51-.48,5.03-.91,7.57-1.28,8.89-1.32,18.02-2,27.32-2,4.23,0,8.42.14,12.56.42,5,.33,9.92.86,14.77,1.57.01,0,.02.01.04.01.74.11,1.47.22,2.2.34,2.19.35,4.37.74,6.53,1.17.99.19,1.98.4,2.97.62,2.86.61,5.68,1.29,8.47,2.04.93.25,1.86.51,2.78.77,3.78,1.07,7.5,2.27,11.15,3.58,1.21.43,2.42.88,3.61,1.34,1.16.44,2.31.9,3.46,1.37,1.11.45,2.21.92,3.31,1.39,1.06.46,2.12.93,3.16,1.41,32.49,14.81,58.43,38.97,73.12,68.35-22.89,44.99-73.15,78.57-132.95,84.81Z"/>
      <path class="cls-3" d="M325.08,182.8c0,18.96-15.37,34.32-34.32,34.32s-34.32-15.36-34.32-34.32,15.37-34.32,34.32-34.32,34.32,15.37,34.32,34.32Z"/>
      <circle class="cls-16" cx="280.05" cy="165.96" r="10.4"/>
      <circle class="cls-14" cx="280.05" cy="165.38" r="8.99"/>
      <path class="cls-2" d="M325.65,182.38c0,19.34-15.68,35.01-35.01,35.01s-35.01-15.67-35.01-35.01,15.68-35.01,35.01-35.01,35.01,15.68,35.01,35.01Z"/>
      <circle class="cls-17" cx="280.71" cy="165.2" r="10.61"/>
      <circle class="cls-15" cx="280.4" cy="164.72" r="8.59"/>
      <g>
        <path class="cls-13" d="M371.38,158.9c2.11,7.37,3.23,15.17,3.23,23.21,0,4.59-.36,9.1-1.07,13.5-.68,4.24-1.67,8.37-2.96,12.38-.91-2.32-1.91-4.59-3.01-6.82-3.51-7.1-8.01-13.64-13.3-19.43-4.02-4.42-8.5-8.4-13.37-11.87-5.36-3.83-11.2-7.04-17.39-9.53-.48-.2-.96-.39-1.46-.56-2.19-3.1-4.83-5.87-7.81-8.2-3.62-2.84-7.75-5.03-12.24-6.42,2.73-.67,5.51-1.21,8.34-1.59,3.8-.53,7.68-.81,11.62-.81,8.65,0,17.01,1.31,24.87,3.75,8.91,2.78,17.19,7,24.56,12.39Z"/>
        <path class="cls-11" d="M369.59,153.31c.66,1.83,1.26,3.7,1.79,5.58-7.37-5.39-15.66-9.61-24.56-12.39-7.86-2.44-16.22-3.75-24.87-3.75-3.95,0-7.82.28-11.62.81-2.82.39-5.61.92-8.34,1.59-3.6-1.12-7.44-1.72-11.41-1.72-.18,0-.34,0-.52,0-2.47.03-4.88.3-7.22.78,1.24-1.07,2.51-2.08,3.81-3.07,4.86-3.7,10.14-6.87,15.75-9.43,5.11-2.34,10.49-4.19,16.08-5.47,6.04-1.39,12.33-2.12,18.79-2.12,3.05,0,6.07.17,9.05.49,2.24.24,4.47.56,6.65.99,7.2,7.99,12.88,17.38,16.62,27.71Z"/>
        <path class="cls-10" d="M367.56,201.17c1.1,2.22,2.11,4.5,3.01,6.82-3.22,10.06-8.27,19.29-14.76,27.3-2.17,2.69-4.51,5.24-6.99,7.63.61-4.1.93-8.3.93-12.57,0-5.77-.58-11.39-1.68-16.84-2.31-11.5-6.96-22.15-13.42-31.44-1.96-2.82-4.08-5.51-6.38-8.06-.93-4.37-2.59-8.47-4.85-12.15-.43-.71-.9-1.4-1.37-2.07.49.18.97.37,1.46.56,6.19,2.49,12.03,5.7,17.39,9.53,4.87,3.47,9.36,7.45,13.37,11.87,5.28,5.79,9.78,12.32,13.3,19.43Z"/>
        <path class="cls-9" d="M349.75,230.34c0,4.27-.31,8.47-.93,12.57-8,7.74-17.53,13.89-28.09,17.96-4.12,1.59-8.39,2.87-12.8,3.79,1.66-2.12,3.23-4.33,4.68-6.61,4.35-6.81,7.75-14.28,10.02-22.23,1.45-5.07,2.44-10.34,2.92-15.75.22-2.48.32-5,.32-7.54,0-2.76-.13-5.49-.39-8.18-.15-1.58-.34-3.14-.57-4.68,1.34-2.62,2.39-5.43,3.09-8.37.72-2.94,1.1-6.03,1.1-9.2,0-2.78-.3-5.49-.85-8.1,2.29,2.55,4.42,5.25,6.38,8.06,6.47,9.29,11.11,19.94,13.42,31.44,1.1,5.44,1.68,11.07,1.68,16.84Z"/>
        <path class="cls-6" d="M352.96,125.61c-2.18-.42-4.41-.75-6.65-.99-2.98-.33-6-.49-9.05-.49-6.46,0-12.74.73-18.79,2.12-5.59,1.28-10.97,3.13-16.08,5.47-5.61,2.56-10.88,5.73-15.75,9.43-1.3.99-2.57,2.01-3.81,3.07-2.57.52-5.05,1.3-7.41,2.32-4.23,1.82-8.07,4.37-11.36,7.5.88-2.75,1.89-5.43,3.03-8.04,4.78-10.98,11.84-20.74,20.56-28.68,7.62-6.94,16.5-12.49,26.28-16.26,11.56,3.35,22.1,9.13,31.03,16.76,2.84,2.41,5.51,5.02,8,7.8Z"/>
        <path class="cls-7" d="M325.88,212.54c0,2.54-.11,5.06-.32,7.54-.48,5.41-1.48,10.68-2.92,15.75-2.26,7.95-5.67,15.42-10.02,22.23-1.46,2.28-3.02,4.49-4.68,6.61-5.6,1.19-11.41,1.81-17.35,1.81-5.36,0-10.62-.5-15.71-1.48-2.57-.48-5.11-1.1-7.59-1.82,9.66-3.76,18.46-9.29,26.01-16.15,8.03-7.31,14.64-16.16,19.38-26.09,1.61-3.39,3.01-6.9,4.17-10.52,1.27-1.2,2.46-2.47,3.56-3.82,1.74-2.12,3.25-4.44,4.51-6.91.23,1.54.42,3.1.57,4.68.27,2.69.39,5.42.39,8.18Z"/>
        <path class="cls-5" d="M316.85,210.4c-1.16,3.63-2.56,7.13-4.17,10.52-4.73,9.93-11.35,18.78-19.38,26.09-7.55,6.87-16.35,12.39-26.01,16.15-9.52-2.74-18.34-7.13-26.15-12.84-4.54-3.32-8.73-7.07-12.51-11.22,3.36.44,6.76.68,10.23.71.26,0,.51,0,.77,0,6.46,0,12.74-.73,18.79-2.12,6.6-1.51,12.92-3.81,18.84-6.79,4.7-2.37,9.16-5.17,13.32-8.35.79-.6,1.55-1.22,2.31-1.85,2.24-.13,4.45-.45,6.57-.96,6.62-1.56,12.59-4.85,17.4-9.36Z"/>
        <path class="cls-4" d="M301.57,98.47c4.22.55,8.36,1.42,12.36,2.59-9.77,3.77-18.66,9.33-26.28,16.26-8.72,7.94-15.78,17.71-20.56,28.68-1.14,2.61-2.16,5.3-3.03,8.04-2.38,2.27-4.48,4.84-6.22,7.66-1.06,1.71-2,3.51-2.79,5.38-.21-1.25-.39-2.52-.55-3.78-.42-3.43-.64-6.92-.64-10.45,0-2.04.07-4.06.21-6.06.42-5.93,1.46-11.7,3.04-17.22,2.4-8.44,6.08-16.32,10.82-23.45,1.48-2.22,3.06-4.38,4.73-6.44,5.77-1.27,11.76-1.94,17.91-1.94,3.73,0,7.39.25,10.99.72Z"/>
        <path class="cls-8" d="M290.58,220.79c.77,0,1.54-.02,2.29-.07-.76.63-1.53,1.24-2.31,1.85-4.15,3.18-8.61,5.98-13.32,8.35-5.91,2.97-12.23,5.28-18.84,6.79-6.04,1.39-12.33,2.12-18.79,2.12-.26,0-.51,0-.77,0-3.46-.03-6.87-.27-10.23-.71-6.96-7.61-12.54-16.51-16.35-26.3-1.38-3.55-2.53-7.2-3.42-10.97,8.53,7.29,18.55,12.89,29.52,16.3,7.86,2.45,16.22,3.76,24.88,3.76,2.63,0,5.23-.12,7.79-.37,3.71-.34,7.34-.92,10.88-1.73,1.95.44,3.96.75,6.01.89.87.06,1.74.09,2.63.09Z"/>
        <path class="cls-18" d="M266.54,212.32c4.43,3.57,9.67,6.17,15.4,7.49-3.54.81-7.17,1.39-10.88,1.73-2.57.25-5.17.37-7.79.37-8.66,0-17.02-1.31-24.88-3.76-10.97-3.41-20.99-9.01-29.52-16.3-1.52-6.33-2.31-12.93-2.31-19.73,0-4.27.31-8.47.93-12.57.63-4.3,1.59-8.5,2.85-12.56.92,2.51,1.93,4.96,3.07,7.35,3.6,7.64,8.33,14.63,13.95,20.8,4.61,5.06,9.82,9.54,15.53,13.34,3.33,2.22,6.82,4.22,10.45,5.95,2.78,1.32,5.64,2.5,8.57,3.51,1.42,1.59,2.97,3.06,4.64,4.4Z"/>
        <path class="cls-19" d="M272.67,99.68c-1.67,2.07-3.26,4.22-4.73,6.44-4.73,7.12-8.41,15.01-10.82,23.45-1.58,5.52-2.62,11.29-3.04,17.22-.14,2-.21,4.02-.21,6.06,0,3.54.22,7.03.64,10.45.16,1.26.34,2.53.55,3.78-1.7,4.06-2.75,8.48-2.96,13.11-.03.63-.05,1.26-.05,1.91,0,4.55.79,8.93,2.23,12.99.26.71.52,1.41.82,2.1-2.82-2.73-5.45-5.66-7.85-8.77-7.85-10.08-13.45-22-16.08-35.01-1.09-5.44-1.67-11.08-1.67-16.85,0-4.59.36-9.11,1.07-13.51,8.29-8.51,18.36-15.25,29.61-19.61,4.03-1.57,8.2-2.84,12.49-3.77Z"/>
        <path class="cls-20" d="M255.1,197.2c1.66,3.95,3.98,7.58,6.8,10.72-2.93-1.01-5.8-2.18-8.57-3.51-3.63-1.73-7.13-3.72-10.45-5.95-5.71-3.79-10.92-8.28-15.53-13.34-5.62-6.17-10.34-13.16-13.95-20.8-1.14-2.39-2.16-4.84-3.07-7.35,3.08-9.91,7.92-19.03,14.16-26.99,1.9-2.42,3.93-4.72,6.07-6.92-.71,4.4-1.07,8.91-1.07,13.51,0,5.77.58,11.4,1.67,16.85,2.63,13,8.23,24.93,16.08,35.01,2.4,3.11,5.03,6.05,7.85,8.77Z"/>
      </g>
      <path class="cls-21" d="M108.42,181.11s39.99-107.02,168.8-116.34c0,0-86.31,23.68-133.97,115.72l-34.82.62Z"/>
      <path class="cls-12" d="M136.1,328.97h9.08v62.78h30.05v7.63h-39.12v-70.41Z"/>
      <path class="cls-12" d="M260.96,366.37h-27.48v25.44h30.62v7.64h-39.75v-70.55h38.17v7.64h-29.05v22.3h27.48v7.54Z"/>
      <path class="cls-12" d="M314.75,399.56v-70.87h10.04l22.83,35.86c5.29,8.31,9.41,15.77,12.79,23.03l.21-.1c-.85-9.46-1.06-18.09-1.06-29.13v-29.65h8.67v70.87h-9.3l-22.62-35.96c-4.97-7.89-9.73-15.98-13.32-23.66l-.32.11c.53,8.94.74,17.45.74,29.23v30.28h-8.67Z"/>
      <path class="cls-12" d="M416.32,388.49c4.09,2.51,10.07,4.61,16.37,4.61,9.34,0,14.79-4.92,14.79-12.04,0-6.6-3.78-10.37-13.32-14.03-11.54-4.08-18.67-10.05-18.67-20,0-11,9.13-19.16,22.87-19.16,7.24,0,12.48,1.68,15.63,3.46l-2.52,7.44c-2.31-1.26-7.03-3.35-13.43-3.35-9.65,0-13.32,5.76-13.32,10.58,0,6.6,4.3,9.84,14.06,13.61,11.96,4.61,18.04,10.37,18.04,20.74,0,10.89-8.08,20.32-24.76,20.32-6.82,0-14.27-1.99-18.04-4.5l2.31-7.64Z"/>
      <path class="cls-22" d="M438.27,181.1h35.83c.05.35-31.17,102.02-169.39,115.97,0,0,101.08-33.99,133.55-115.97Z"/>
      <line class="cls-23" x1="438.27" y1="183.41" x2="436.94" y2="181.1"/>
    </g>
  </g>
</svg>