<svg width="64" height="36" viewBox="46 0 52 36" fill="none" xmlns="http://www.w3.org/2000/svg" xmlns:xlink="http://www.w3.org/1999/xlink">
<path d="M49.6159 24.9082L46.3759 10.9082H49.7159L52.5359 23.3282H50.4359L58.3159 10.9082H61.6759L52.8159 24.9082H49.6159ZM60.0206 24.9082L62.1606 14.1482H65.2606L63.1206 24.9082H60.0206ZM64.2406 12.6482C63.694 12.6482 63.254 12.4949 62.9206 12.1882C62.5873 11.8682 62.4206 11.4815 62.4206 11.0282C62.4206 10.4949 62.6073 10.0549 62.9806 9.7082C63.3673 9.3482 63.8673 9.1682 64.4806 9.1682C65.0273 9.1682 65.4673 9.32154 65.8006 9.6282C66.1473 9.92154 66.3206 10.2882 66.3206 10.7282C66.3206 11.3015 66.1273 11.7682 65.7406 12.1282C65.3673 12.4749 64.8673 12.6482 64.2406 12.6482ZM71.7367 25.0682C70.6167 25.0682 69.6434 24.8682 68.8167 24.4682C68.0034 24.0682 67.3701 23.5082 66.9167 22.7882C66.4634 22.0682 66.2367 21.2215 66.2367 20.2482C66.2367 19.0482 66.5034 17.9815 67.0367 17.0482C67.5834 16.1015 68.3301 15.3549 69.2767 14.8082C70.2367 14.2615 71.3367 13.9882 72.5767 13.9882C73.6301 13.9882 74.5367 14.1882 75.2967 14.5882C76.0567 14.9749 76.6434 15.5215 77.0567 16.2282C77.4834 16.9215 77.6967 17.7549 77.6967 18.7282C77.6967 19.0082 77.6767 19.2882 77.6367 19.5682C77.6101 19.8482 77.5701 20.1149 77.5167 20.3682H68.6167L68.9367 18.5482H76.0567L74.7767 19.1082C74.8834 18.5082 74.8501 18.0082 74.6767 17.6082C74.5034 17.1949 74.2234 16.8815 73.8367 16.6682C73.4501 16.4415 72.9834 16.3282 72.4367 16.3282C71.7567 16.3282 71.1767 16.4949 70.6967 16.8282C70.2301 17.1482 69.8767 17.5949 69.6367 18.1682C69.3967 18.7415 69.2767 19.3882 69.2767 20.1082C69.2767 20.9349 69.5034 21.5549 69.9567 21.9682C70.4234 22.3682 71.1234 22.5682 72.0567 22.5682C72.6034 22.5682 73.1301 22.4815 73.6367 22.3082C74.1434 22.1349 74.5767 21.8882 74.9367 21.5682L76.2367 23.6282C75.6101 24.1215 74.9034 24.4882 74.1167 24.7282C73.3434 24.9549 72.5501 25.0682 71.7367 25.0682ZM80.94 24.9082L79.04 14.1482H81.88L83.4 23.4082H81.94L87.1 14.1482H89.78L91.34 23.4082H89.88L95 14.1482H97.94L92 24.9082H88.92L87.46 16.9682H88.38L83.98 24.9082H80.94Z" fill="#FFFFFF"/>
</svg>
